<svg width="100" height="100" viewBox="0 0 100 100" fill="none" xmlns="http://www.w3.org/2000/svg">
<circle cx="50" cy="50" r="50" fill="#61DBB2"/>
<g clip-path="url(#clip0)">
<path d="M53.9074 30.5695C53.4102 30.3323 52.8244 30.3952 52.3958 30.7409L38.4978 41.8588H31.8573C30.2829 41.8588 29 43.1417 29 44.7161V56.1455C29 57.7227 30.2829 59.0028 31.8573 59.0028H38.4978L52.393 70.1207C52.653 70.3264 52.9702 70.4321 53.2873 70.4321C53.4988 70.4321 53.7102 70.3836 53.9074 70.2893C54.4017 70.0521 54.716 69.5521 54.716 69.0035V31.8581C54.716 31.3095 54.4017 30.8095 53.9074 30.5695Z" fill="white"/>
<path d="M61.9479 40.3273C61.385 39.7729 60.4821 39.7815 59.9278 40.3387C59.3735 40.9016 59.3792 41.8045 59.9392 42.3617C62.0994 44.4933 63.288 47.3592 63.288 50.4308C63.288 53.5024 62.0994 56.3683 59.9392 58.4999C59.3792 59.0514 59.3735 59.9571 59.9278 60.52C60.2078 60.8029 60.5764 60.9429 60.9422 60.9429C61.305 60.9429 61.6679 60.8058 61.9479 60.5286C64.6567 57.8627 66.1454 54.2739 66.1454 50.4308C66.1454 46.5877 64.6567 42.9989 61.9479 40.3273Z" fill="white"/>
<path d="M65.9796 36.3013C65.4167 35.7441 64.5138 35.7498 63.9566 36.3099C63.4023 36.8699 63.408 37.7757 63.9652 38.33C67.214 41.5502 69.0027 45.8476 69.0027 50.4308C69.0027 55.014 67.214 59.3085 63.9652 62.5287C63.408 63.0859 63.4023 63.9917 63.9566 64.5517C64.2395 64.8318 64.6053 64.9718 64.971 64.9718C65.3339 64.9718 65.6996 64.8346 65.9796 64.5575C69.7742 60.8001 71.86 55.7826 71.86 50.4308C71.86 45.079 69.7742 40.0615 65.9796 36.3013Z" fill="white"/>
</g>
<defs>
<clipPath id="clip0">
<rect width="42.86" height="42.86" fill="white" transform="translate(29 29)"/>
</clipPath>
</defs>
</svg>
