<svg width="100" height="100" viewBox="0 0 100 100" fill="none" xmlns="http://www.w3.org/2000/svg">
<circle cx="50" cy="50" r="50" fill="#F77F69"/>
<g clip-path="url(#clip0)">
<path d="M68.4136 43.6661H45.1714C44.7669 43.6661 44.439 43.9941 44.439 44.3986C44.439 44.8031 44.7669 45.131 45.1714 45.131H68.4136C68.8181 45.131 69.146 44.8031 69.146 44.3986C69.146 43.9941 68.8181 43.6661 68.4136 43.6661Z" fill="white"/>
<path d="M68.4136 49.265H45.1714C44.7669 49.265 44.439 49.5929 44.439 49.9974C44.439 50.4019 44.7669 50.7299 45.1714 50.7299H68.4136C68.8181 50.7299 69.146 50.4019 69.146 49.9974C69.146 49.5929 68.8181 49.265 68.4136 49.265Z" fill="white"/>
<path d="M68.4136 54.864H45.1714C44.7669 54.864 44.439 55.1919 44.439 55.5964C44.439 56.0009 44.7669 56.3289 45.1714 56.3289H68.4136C68.8181 56.3289 69.146 56.0009 69.146 55.5964C69.146 55.1919 68.8181 54.864 68.4136 54.864Z" fill="white"/>
<path d="M70.74 37.2606H42.8449C40.496 37.2606 38.585 39.1716 38.585 41.5206V59.0613C38.585 61.4102 40.4959 63.3213 42.8449 63.3213H62.3968C62.6059 63.3213 62.8001 63.4153 62.9298 63.5795L69.2438 71.5729C69.4926 71.888 69.8557 72.0596 70.2358 72.0596C70.3772 72.0596 70.5209 72.0359 70.6619 71.9869C71.1821 71.8062 71.5183 71.3337 71.5183 70.783V63.2485C73.4934 62.8796 75 61.1334 75 59.0613V41.5205C75 39.1716 73.0891 37.2606 70.74 37.2606ZM73.5352 59.0613C73.5352 60.5825 72.2976 61.8359 70.7764 61.8552C70.3756 61.8604 70.0533 62.1868 70.0533 62.5877V70.2346L64.0793 62.6715C63.6702 62.1534 63.0569 61.8563 62.3968 61.8563H42.8449C41.3037 61.8563 40.0498 60.6024 40.0498 59.0612V41.5205C40.0498 39.9793 41.3036 38.7254 42.8449 38.7254H70.74C72.2813 38.7254 73.5352 39.9793 73.5352 41.5205V59.0613Z" fill="white"/>
<path d="M35.7904 49.3712C35.2895 49.4423 34.8408 49.7002 34.5271 50.0973L29.4958 56.467V50.0831C29.4958 49.6822 29.1735 49.3559 28.7728 49.3507C27.5002 49.3345 26.4648 48.2859 26.4648 47.0133V31.7437C26.4648 30.4543 27.5139 29.4053 28.8032 29.4053H53.0867C54.3761 29.4053 55.4251 30.4543 55.4251 31.7437V34.569C55.4251 34.9735 55.753 35.3015 56.1575 35.3015C56.562 35.3015 56.8899 34.9735 56.8899 34.569V31.7437C56.8899 29.6466 55.1838 27.9404 53.0867 27.9404H28.8032C26.7062 27.9404 25 29.6466 25 31.7437V47.0133C25 48.8362 26.3058 50.3764 28.0311 50.7363V57.2174C28.0311 57.7377 28.3486 58.1843 28.8402 58.355C28.9735 58.4013 29.1093 58.4237 29.2429 58.4237C29.602 58.4237 29.9452 58.2614 30.1803 57.9639L35.6768 51.0053C35.7561 50.9048 35.8696 50.8396 35.9964 50.8215C36.3969 50.7647 36.6755 50.3939 36.6186 49.9934C36.5617 49.5929 36.1915 49.3141 35.7904 49.3712Z" fill="white"/>
</g>
<defs>
<clipPath id="clip0">
<rect width="50" height="50" fill="white" transform="translate(25 25)"/>
</clipPath>
</defs>
</svg>
