<svg width="50" height="50" viewBox="0 0 50 50" fill="none" xmlns="http://www.w3.org/2000/svg">
<g clip-path="url(#clip0)">
<path d="M15.5133 39.6938C16.4739 39.7521 17.3431 40.17 17.9825 40.8122C18.6773 41.5043 19.1064 42.4621 19.1064 43.5195V45.0089C20.3079 43.467 21.022 41.5265 21.022 39.4198C21.022 36.9034 20.0006 34.6225 18.3507 32.9726C16.7008 31.3227 14.4225 30.304 11.9035 30.304C9.38719 30.304 7.10897 31.3228 5.45916 32.9726C3.80926 34.6225 2.78787 36.9034 2.78787 39.4198C2.78787 41.5237 3.50203 43.4615 4.70066 45.0061V43.5195C4.70066 42.4648 5.1326 41.507 5.82469 40.8122C6.46688 40.17 7.33611 39.752 8.29656 39.6938C8.12498 39.2564 8.03084 38.7831 8.03084 38.2876V35.9346V34.9214C8.03084 34.2349 8.31043 33.612 8.7616 33.1608C9.21277 32.7097 9.83572 32.4301 10.5222 32.4301H15.0454C15.4522 32.4301 15.779 32.7567 15.779 33.1637V35.9347V38.2877C15.7791 38.7831 15.6849 39.2564 15.5133 39.6938ZM9.4952 35.2037H14.3146V33.8943H10.5222C10.2398 33.8943 9.98524 34.0105 9.79695 34.1961C9.6115 34.3844 9.4952 34.639 9.4952 34.9214V35.2037ZM14.3146 36.6681H9.4952V38.2875C9.4952 39.6107 10.5804 40.6959 11.9035 40.6959C13.2295 40.6959 14.3145 39.6107 14.3145 38.2875V36.6681H14.3146ZM40.5048 8.66182C39.6522 8.75596 38.3843 8.68945 37.3019 7.78428C36.9143 7.99463 36.3553 8.20508 35.6852 8.18574V9.45068C35.6852 10.1123 35.9565 10.7131 36.3939 11.1504C36.8313 11.5878 37.432 11.8591 38.0965 11.8591C38.758 11.8591 39.3588 11.5878 39.7961 11.1504C40.2335 10.713 40.5048 10.1123 40.5048 9.45068V8.66182ZM35.6852 6.72402C36.1199 6.75176 36.5849 6.58291 36.9088 6.29492C37.2133 6.03193 37.6756 6.06514 37.9386 6.36973C38.7552 7.30537 39.8708 7.29707 40.5047 7.19463V6.08184C40.5047 5.80225 40.3885 5.54482 40.2029 5.35938C40.0175 5.17109 39.76 5.05762 39.4776 5.05762H36.7122C36.4298 5.05762 36.1752 5.17109 35.9869 5.35938C35.8015 5.54482 35.6851 5.80225 35.6851 6.08184V6.72402H35.6852ZM9.30145 41.1499H8.53465C7.88416 41.1499 7.29168 41.4185 6.86258 41.8476C6.43074 42.2767 6.16512 42.869 6.16512 43.5195V46.5038C6.79901 47.0159 7.50213 47.4478 8.26063 47.7771V44.876C8.26063 44.469 8.58729 44.1424 8.99139 44.1424C9.39559 44.1424 9.72498 44.469 9.72498 44.876V48.2727C10.4226 48.4443 11.1534 48.5356 11.9036 48.5356C12.6566 48.5356 13.3873 48.4442 14.085 48.2727V44.876C14.085 44.469 14.4144 44.1424 14.8186 44.1424C15.2228 44.1424 15.5493 44.469 15.5493 44.876V47.7771C16.3079 47.4478 17.0138 47.0159 17.6476 46.5011V43.5196C17.6476 42.8719 17.3791 42.2795 16.9472 41.8477C16.5182 41.4186 15.9258 41.15 15.2753 41.15H14.5085C13.8221 41.7784 12.9057 42.1632 11.9036 42.1632C10.9043 42.1631 9.98797 41.7783 9.30145 41.1499ZM41.9691 9.45068C41.9691 9.94355 41.875 10.4196 41.7033 10.8542C42.6639 10.9151 43.5331 11.3304 44.1754 11.9726C44.8675 12.6675 45.2965 13.6253 45.2965 14.6827V16.1721C46.4979 14.6274 47.2121 12.6869 47.2121 10.5802C47.2121 8.06377 46.1906 5.78555 44.5408 4.13564C42.8909 2.48574 40.6127 1.46426 38.0965 1.46426C35.5773 1.46426 33.2991 2.48574 31.6492 4.13564C29.9993 5.78555 28.9779 8.06387 28.9779 10.5802C28.9779 12.6868 29.6922 14.6246 30.8908 16.1665V14.6827C30.8908 13.6253 31.3226 12.6675 32.0175 11.9726C32.6569 11.3304 33.5262 10.9151 34.4867 10.8542C34.315 10.4196 34.2209 9.94355 34.2209 9.45068V6.08184C34.2209 5.39814 34.5005 4.7752 34.9516 4.32402C35.4029 3.87275 36.0258 3.59316 36.7122 3.59316H39.4776C40.1641 3.59316 40.787 3.87275 41.2382 4.32402C41.6893 4.7752 41.9689 5.39814 41.9689 6.08184V9.45068H41.9691ZM40.6985 12.3131C40.012 12.9388 39.0957 13.3236 38.0964 13.3236C37.0942 13.3236 36.1807 12.9389 35.4914 12.3131H34.7246C34.0741 12.3131 33.4816 12.579 33.0526 13.008C32.6208 13.4398 32.355 14.0322 32.355 14.6827V17.6641C32.9888 18.1789 33.692 18.608 34.4505 18.9401V16.0363C34.4505 15.6322 34.7772 15.3027 35.1813 15.3027C35.5854 15.3027 35.9149 15.6322 35.9149 16.0363V19.4357C36.6125 19.6074 37.3432 19.6987 38.0963 19.6987C38.8465 19.6987 39.5772 19.6073 40.2749 19.4357V16.0363C40.2749 15.6322 40.6043 15.3027 41.0085 15.3027C41.4127 15.3027 41.7392 15.6322 41.7392 16.0363V18.9401C42.5005 18.608 43.2036 18.1762 43.8375 17.6612V14.6826C43.8375 14.0321 43.5689 13.4396 43.1371 13.0079C42.708 12.5788 42.1157 12.313 41.4651 12.313H40.6985V12.3131ZM20.5265 33.2826C21.1577 33.1608 21.8304 33.0611 22.5224 32.9837C23.1011 32.9228 23.6879 32.8785 24.2664 32.8592V25.7337H16.9444C16.961 26.4673 16.9997 27.1897 17.0606 27.8957C17.1354 28.7538 17.2406 29.5761 17.3707 30.3596C18.1071 30.8024 18.7825 31.3339 19.386 31.9374C19.8013 32.3524 20.1834 32.8036 20.5265 33.2826ZM25.7336 32.8563C27.9094 32.9227 29.9635 33.2881 31.796 33.886C32.5379 31.5054 32.9918 28.7204 33.0555 25.7335H25.7336V32.8563ZM33.1662 34.3954C34.6056 34.9989 35.868 35.7573 36.8977 36.635C37.9248 35.5857 38.8133 34.3982 39.5358 33.1083C39.7325 32.7566 40.1754 32.6294 40.5297 32.8259C40.8813 33.0195 41.0086 33.4653 40.8121 33.8169C39.237 36.6377 36.9338 38.988 34.1518 40.6213C31.4638 42.1991 28.3357 43.1044 25.0001 43.1044C24.3772 43.1044 23.7489 43.0712 23.1205 43.0075C22.7163 42.9633 22.3149 42.9106 21.919 42.8415C21.393 44.386 20.5183 45.7731 19.3862 46.9025C17.4732 48.8151 14.8267 50 11.9036 50C9.08279 50 6.40867 48.8871 4.42391 46.9023C2.50838 44.9866 1.32352 42.3402 1.32352 39.4197C1.32352 36.4964 2.50838 33.8528 4.42391 31.9372C5.31522 31.0432 6.37 30.3095 7.53533 29.7808C7.35262 29.1164 7.20867 28.4381 7.1035 27.746C6.96785 26.8491 6.89588 25.9329 6.89588 25C6.89588 23.9619 6.98445 22.9377 7.15613 21.9383C7.33045 20.9195 7.58797 19.9285 7.92566 18.9735C8.06131 18.5915 8.47928 18.3922 8.85857 18.5279C9.24051 18.6607 9.43983 19.0788 9.30418 19.4608C8.99695 20.3355 8.75613 21.2464 8.59822 22.1849C8.48201 22.863 8.40731 23.5578 8.37674 24.2693H15.48C15.5435 21.1024 16.0308 18.1433 16.8336 15.6047C15.3941 15.0012 14.1318 14.2428 13.102 13.3681C12.1581 14.3313 11.3304 15.4109 10.6438 16.5819C10.4389 16.9279 9.99334 17.0441 9.64451 16.8421C9.29578 16.6372 9.17947 16.1889 9.38436 15.8429C10.9845 13.1188 13.2764 10.8488 16.017 9.2793C18.6664 7.76211 21.7307 6.8957 25 6.8957C25.6228 6.8957 26.2512 6.92891 26.8796 6.99541C27.2838 7.03691 27.6851 7.09229 28.081 7.15869C28.607 5.61416 29.4845 4.22998 30.6138 3.10039C32.5267 1.18486 35.1731 0 38.0964 0C41.0168 0 43.6633 1.18486 45.5761 3.10039C47.4917 5.01338 48.6764 7.65977 48.6764 10.5803C48.6764 13.5036 47.4917 16.15 45.5761 18.0628C44.6847 18.9568 43.63 19.6904 42.4646 20.222C42.6473 20.8864 42.7913 21.5646 42.8965 22.254C43.0321 23.1509 43.1041 24.0671 43.1041 25C43.1041 25.9661 43.0265 26.9239 42.8743 27.8679C42.722 28.8284 42.495 29.7586 42.2015 30.6528C42.077 31.0376 41.6645 31.248 41.2798 31.1233C40.895 30.9988 40.6874 30.5863 40.812 30.2016C41.0832 29.3684 41.2936 28.5129 41.4348 27.6381C41.5317 27.0209 41.5953 26.3842 41.6231 25.7336H34.5199C34.4561 28.8977 33.969 31.8569 33.1662 34.3954ZM35.8237 37.6398C34.9516 36.9228 33.8915 36.2916 32.6846 35.7795C32.4327 36.4272 32.1613 37.0391 31.8707 37.6148C31.1787 38.9824 30.3704 40.1395 29.4762 41.0337C30.8714 40.6434 32.1918 40.0787 33.4126 39.3617C34.2679 38.8606 35.0762 38.282 35.8237 37.6398ZM31.3142 35.2674C29.634 34.7221 27.7432 34.3871 25.7335 34.3207V41.568C27.5799 41.2109 29.2713 39.514 30.5668 36.956C30.8353 36.4272 31.0846 35.8625 31.3142 35.2674ZM24.2664 34.3234C23.7321 34.3428 23.1978 34.3816 22.6746 34.4369C22.2234 34.4868 21.775 34.5504 21.3376 34.6224C22.0712 36.0618 22.4864 37.6925 22.4864 39.4197C22.4864 39.8627 22.4587 40.3001 22.4061 40.7291C22.7744 40.9921 23.1508 41.2053 23.5384 41.3575C23.7792 41.4517 24.0201 41.5236 24.2664 41.5707V34.3234ZM14.1763 12.3602C15.0483 13.08 16.1113 13.7084 17.3182 14.2232C17.5674 13.5754 17.8387 12.9608 18.1294 12.3878C18.8214 11.0203 19.6269 9.86318 20.5239 8.96904C19.1869 9.34268 17.9218 9.87705 16.7453 10.5496C15.8289 11.0729 14.9708 11.6792 14.1763 12.3602ZM18.6857 14.7326C20.366 15.2807 22.2567 15.6129 24.2664 15.6793V8.43213C22.42 8.78916 20.7286 10.486 19.4331 13.0468C19.1646 13.5728 18.9154 14.1375 18.6857 14.7326ZM25.7336 15.6794C26.2928 15.6628 26.8382 15.624 27.3669 15.5659C27.8097 15.5188 28.2416 15.458 28.6651 15.3859C27.9288 13.9437 27.5136 12.3104 27.5136 10.5803C27.5136 10.1373 27.5413 9.70273 27.5938 9.27363C27.2285 9.00781 26.8492 8.79746 26.4616 8.64522C26.2208 8.55107 25.9799 8.4791 25.7336 8.43203V15.6794ZM29.4762 16.7202C28.8394 16.8476 28.1889 16.9472 27.5218 17.0192C26.9322 17.0829 26.3343 17.1271 25.7335 17.1437V24.2692H33.0555C33.0388 23.5329 33.0001 22.8104 32.9392 22.1045C32.8644 21.2464 32.7593 20.4241 32.6292 19.6435C31.8956 19.2006 31.2174 18.669 30.6138 18.0628C30.1986 17.6476 29.8167 17.199 29.4762 16.7202ZM24.2664 17.1437C22.0906 17.0773 20.0366 16.7119 18.204 16.114C17.4621 18.4974 17.0082 21.2795 16.9445 24.2692H24.2665V17.1437H24.2664ZM34.2263 20.4323C34.2956 20.9445 34.3537 21.4595 34.398 21.9799C34.4616 22.7272 34.5032 23.4913 34.5198 24.2691H41.623C41.5981 23.6602 41.5399 23.0594 41.4486 22.4725C41.36 21.8802 41.2383 21.3016 41.0886 20.734C40.1391 21.0137 39.1344 21.1632 38.0963 21.1632C36.7288 21.1633 35.4251 20.903 34.2263 20.4323ZM15.7735 29.5676C15.7043 29.0554 15.6461 28.5404 15.6018 28.0229C15.5382 27.2727 15.4967 26.5087 15.4801 25.7336H8.37684C8.40184 26.3426 8.46268 26.9405 8.55125 27.5302C8.63983 28.1198 8.7616 28.7012 8.91111 29.2688C9.86063 28.9892 10.8655 28.8396 11.9036 28.8396C13.2711 28.8395 14.5749 29.097 15.7735 29.5676Z" fill="#515151"/>
</g>
<defs>
<clipPath id="clip0">
<rect width="50" height="50" fill="white"/>
</clipPath>
</defs>
</svg>
