<svg width="50" height="50" viewBox="0 0 50 50" fill="none" xmlns="http://www.w3.org/2000/svg">
<path d="M18.0076 6.99264C18.0076 3.13093 21.1386 0 25.0008 0C28.862 0 31.9929 3.13093 31.9929 6.99264C31.9929 10.8544 28.862 13.9853 25.0008 13.9853C21.1386 13.9853 18.0076 10.8544 18.0076 6.99264ZM28.3609 18.7494C28.4316 17.227 28.9552 15.8175 29.7989 14.6519C29.2068 14.528 28.5955 14.4622 27.9678 14.4622H22.0344C21.4088 14.4622 20.7976 14.5275 20.2088 14.6503C21.1062 15.8953 21.6435 17.415 21.6522 19.0608C22.7421 18.4605 23.9937 18.1189 25.3237 18.1189C26.4026 18.1189 27.4295 18.3437 28.3609 18.7494ZM29.5451 19.3766C31.5763 20.6501 33.0006 22.8052 33.2599 25.3067C34.0882 25.6938 35.0076 25.9164 35.9824 25.9164C39.5409 25.9164 42.4251 23.0321 42.4251 19.4741C42.4251 15.9156 39.5409 13.0314 35.9824 13.0314C32.4578 13.0319 29.5988 15.8646 29.5451 19.3766ZM25.3237 32.5686C28.8823 32.5686 31.7665 29.6832 31.7665 26.1252C31.7665 22.5678 28.8817 19.683 25.3237 19.683C21.7657 19.683 18.8799 22.5678 18.8799 26.1252C18.8799 29.6838 21.7663 32.5686 25.3237 32.5686ZM28.0566 33.0071H22.5897C18.0411 33.0071 14.3405 36.7082 14.3405 41.2563V47.9425L14.3575 48.0467L14.818 48.1914C19.1589 49.5472 22.9302 50 26.0342 50C32.0971 50 35.6112 48.272 35.8278 48.1612L36.2581 47.943H36.3042V41.2563C36.3058 36.7082 32.6053 33.0071 28.0566 33.0071ZM38.7164 26.3566H33.2917C33.233 28.527 32.3065 30.4809 30.8411 31.8871C34.8843 33.0894 37.8425 36.8382 37.8425 41.2667V43.3275C43.1987 43.1307 46.2852 41.6127 46.4886 41.5112L46.919 41.293H46.965V34.6052C46.965 30.0571 43.2645 26.3566 38.7164 26.3566ZM14.0193 25.9164C15.2796 25.9164 16.4523 25.549 17.4457 24.9224C17.7615 22.8627 18.8656 21.0629 20.4429 19.8371C20.4494 19.7165 20.4609 19.5969 20.4609 19.4752C20.4609 15.9167 17.5762 13.0325 14.0193 13.0325C10.4602 13.0325 7.5765 15.9167 7.5765 19.4752C7.57595 23.0327 10.4602 25.9164 14.0193 25.9164ZM19.8047 31.8871C18.3464 30.4886 17.4232 28.544 17.3558 26.3878C17.1546 26.373 16.9556 26.3566 16.7505 26.3566H11.2842C6.73552 26.3566 3.03498 30.0571 3.03498 34.6052V41.2914L3.05198 41.395L3.51249 41.5398C6.99483 42.6274 10.1027 43.128 12.8022 43.2864V41.2667C12.8033 36.8382 15.761 33.0894 19.8047 31.8871Z" fill="#515151"/>
</svg>
