<svg width="50" height="50" viewBox="0 0 50 50" fill="none" xmlns="http://www.w3.org/2000/svg">
<path d="M7.30293 22.6562C7.18882 22.6564 7.07607 22.6315 6.9726 22.5834C6.86913 22.5353 6.77746 22.4651 6.70402 22.3777C6.63059 22.2904 6.57718 22.188 6.54755 22.0779C6.51792 21.9677 6.51279 21.8523 6.53251 21.7399C7.20434 17.9526 9.02322 14.4629 11.7431 11.743C14.463 9.02316 17.9527 7.20431 21.74 6.5325C21.9441 6.49671 22.1541 6.54345 22.3237 6.66246C22.4933 6.78146 22.6087 6.96298 22.6445 7.16707C22.6803 7.37116 22.6336 7.58112 22.5146 7.75074C22.3956 7.92037 22.2141 8.03577 22.01 8.07156C18.5386 8.68729 15.3402 10.3544 12.8472 12.8473C10.3543 15.3402 8.68723 18.5386 8.07148 22.0099C8.03976 22.1908 7.94534 22.3547 7.80479 22.4729C7.66424 22.5911 7.48656 22.656 7.30293 22.6562Z" fill="#515151"/>
<path d="M28.124 43.4794C27.9284 43.4795 27.7399 43.4062 27.5957 43.274C27.4516 43.1417 27.3622 42.9603 27.3454 42.7654C27.3285 42.5705 27.3854 42.3764 27.5048 42.2214C27.6242 42.0664 27.7973 41.9619 27.99 41.9284C31.4614 41.3127 34.6598 39.6456 37.1528 37.1527C39.6457 34.6598 41.3128 31.4614 41.9285 27.99C41.9456 27.8884 41.9826 27.7911 42.0374 27.7038C42.0922 27.6165 42.1638 27.5409 42.2479 27.4814C42.3321 27.4219 42.4272 27.3796 42.5278 27.357C42.6284 27.3344 42.7324 27.332 42.834 27.3498C42.9355 27.3676 43.0325 27.4053 43.1194 27.4608C43.2063 27.5162 43.2813 27.5884 43.3402 27.673C43.3991 27.7576 43.4407 27.853 43.4625 27.9537C43.4844 28.0545 43.4861 28.1586 43.4675 28.26C42.7957 32.0473 40.9768 35.537 38.2569 38.2569C35.537 40.9768 32.0474 42.7957 28.26 43.4675C28.2151 43.4754 28.1696 43.4794 28.124 43.4794Z" fill="#515151"/>
<path d="M7.03125 25.7812C7.46272 25.7812 7.8125 25.4315 7.8125 25C7.8125 24.5685 7.46272 24.2188 7.03125 24.2188C6.59978 24.2188 6.25 24.5685 6.25 25C6.25 25.4315 6.59978 25.7812 7.03125 25.7812Z" fill="#515151"/>
<path d="M25 7.8125C25.4315 7.8125 25.7812 7.46272 25.7812 7.03125C25.7812 6.59978 25.4315 6.25 25 6.25C24.5685 6.25 24.2188 6.59978 24.2188 7.03125C24.2188 7.46272 24.5685 7.8125 25 7.8125Z" fill="#515151"/>
<path d="M42.9688 25.7812C43.4002 25.7812 43.75 25.4315 43.75 25C43.75 24.5685 43.4002 24.2188 42.9688 24.2188C42.5373 24.2188 42.1875 24.5685 42.1875 25C42.1875 25.4315 42.5373 25.7812 42.9688 25.7812Z" fill="#515151"/>
<path d="M25 43.75C25.4315 43.75 25.7812 43.4002 25.7812 42.9688C25.7812 42.5373 25.4315 42.1875 25 42.1875C24.5685 42.1875 24.2188 42.5373 24.2188 42.9688C24.2188 43.4002 24.5685 43.75 25 43.75Z" fill="#515151"/>
<path d="M25 48.4376C20.3645 48.4375 15.8332 47.0628 11.979 44.4874C8.12481 41.912 5.12084 38.2516 3.34698 33.9689C1.57312 29.6863 1.10903 24.9738 2.01339 20.4275C2.91776 15.8811 5.14996 11.705 8.42774 8.4272C10.6032 6.24646 13.1871 4.51591 16.0318 3.33454C18.8765 2.15316 21.9262 1.54412 25.0065 1.54224C28.0868 1.54036 31.1372 2.14568 33.9834 3.32359C36.8295 4.50149 39.4156 6.22888 41.5937 8.40697C43.7718 10.5851 45.4991 13.1711 46.677 16.0173C47.8549 18.8635 48.4602 21.9139 48.4583 24.9942C48.4564 28.0744 47.8474 31.1241 46.666 33.9688C45.4846 36.8136 43.754 39.3975 41.5732 41.5729C39.4019 43.7562 36.8191 45.487 33.9743 46.6654C31.1295 47.8437 28.0792 48.446 25 48.4376ZM25 3.12505C20.6735 3.12505 16.4442 4.40799 12.8469 6.81165C9.24957 9.2153 6.44579 12.6317 4.79012 16.6288C3.13445 20.626 2.70126 25.0243 3.54531 29.2677C4.38936 33.511 6.47276 37.4087 9.53203 40.468C13.6344 44.5704 19.1984 46.8751 25 46.8751C30.8016 46.8751 36.3656 44.5704 40.468 40.468C44.5703 36.3657 46.875 30.8017 46.875 25.0001C46.875 19.1984 44.5703 13.6344 40.468 9.53208C38.4414 7.49444 36.0308 5.87898 33.3758 4.77921C30.7207 3.67944 27.8738 3.11721 25 3.12505Z" fill="#515151"/>
<path d="M24.5682 29.605C24.7535 29.5123 24.8944 29.3498 24.9599 29.1533C25.0254 28.9567 25.0101 28.7422 24.9175 28.5568L22.2676 23.257C23.1576 22.9767 23.9179 22.387 24.4108 21.5947C24.9037 20.8023 25.0967 19.8597 24.9548 18.9374C24.813 18.0152 24.3457 17.1741 23.6374 16.5665C22.9292 15.9589 22.0269 15.6249 21.0938 15.625H16.4063C16.199 15.625 16.0003 15.7073 15.8538 15.8538C15.7073 16.0003 15.625 16.199 15.625 16.4062V28.9062C15.625 29.1135 15.7073 29.3122 15.8538 29.4587C16.0003 29.6052 16.199 29.6875 16.4063 29.6875C16.6135 29.6875 16.8122 29.6052 16.9587 29.4587C17.1052 29.3122 17.1875 29.1135 17.1875 28.9062V23.4375H20.6109L23.52 29.2557C23.5658 29.3475 23.6293 29.4294 23.7068 29.4966C23.7843 29.5639 23.8743 29.6152 23.9717 29.6477C24.069 29.6801 24.1718 29.693 24.2742 29.6857C24.3765 29.6784 24.4764 29.651 24.5682 29.605ZM17.1875 17.1875H21.0938C21.7154 17.1875 22.3115 17.4344 22.751 17.874C23.1906 18.3135 23.4375 18.9096 23.4375 19.5312C23.4375 20.1529 23.1906 20.749 22.751 21.1885C22.3115 21.6281 21.7154 21.875 21.0938 21.875H17.1875V17.1875Z" fill="#515151"/>
<path d="M28.125 33.5938V29.6875H30.4688C31.5048 29.6875 32.4983 29.2759 33.2309 28.5434C33.9634 27.8108 34.375 26.8173 34.375 25.7812C34.375 24.7452 33.9634 23.7517 33.2309 23.0191C32.4983 22.2866 31.5048 21.875 30.4688 21.875H27.3438C27.1365 21.875 26.9378 21.9573 26.7913 22.1038C26.6448 22.2503 26.5625 22.449 26.5625 22.6562V33.5938C26.5625 33.801 26.6448 33.9997 26.7913 34.1462C26.9378 34.2927 27.1365 34.375 27.3438 34.375C27.551 34.375 27.7497 34.2927 27.8962 34.1462C28.0427 33.9997 28.125 33.801 28.125 33.5938ZM32.8125 25.7812C32.8118 26.4026 32.5646 26.9984 32.1252 27.4377C31.6859 27.8771 31.0901 28.1243 30.4688 28.125H28.125V23.4375H30.4688C31.0901 23.4382 31.6859 23.6854 32.1252 24.1248C32.5646 24.5641 32.8118 25.1599 32.8125 25.7812Z" fill="#515151"/>
</svg>
