<svg width="50" height="50" viewBox="0 0 50 50" fill="none" xmlns="http://www.w3.org/2000/svg">
<path d="M12.5 31.25C12.0365 31.25 11.5833 31.3875 11.1979 31.645C10.8125 31.9025 10.5121 32.2686 10.3347 32.6968C10.1573 33.1251 10.1109 33.5964 10.2013 34.051C10.2917 34.5056 10.5149 34.9233 10.8427 35.251C11.1705 35.5788 11.5881 35.802 12.0428 35.8925C12.4974 35.9829 12.9686 35.9365 13.3969 35.7591C13.8252 35.5817 14.1912 35.2813 14.4488 34.8959C14.7063 34.5104 14.8437 34.0573 14.8437 33.5938C14.8437 32.9722 14.5968 32.376 14.1573 31.9365C13.7177 31.4969 13.1216 31.25 12.5 31.25ZM12.5 34.375C12.3455 34.375 12.1944 34.3292 12.066 34.2433C11.9375 34.1575 11.8374 34.0355 11.7782 33.8927C11.7191 33.75 11.7036 33.5929 11.7338 33.4413C11.7639 33.2898 11.8383 33.1506 11.9476 33.0413C12.0568 32.9321 12.196 32.8577 12.3476 32.8275C12.4991 32.7974 12.6562 32.8128 12.799 32.872C12.9417 32.9311 13.0637 33.0312 13.1496 33.1597C13.2354 33.2882 13.2812 33.4392 13.2812 33.5938C13.2812 33.801 13.1989 33.9997 13.0524 34.1462C12.9059 34.2927 12.7072 34.375 12.5 34.375Z" fill="#515151"/>
<path d="M42.1875 28.125H32.0156C32.4207 27.6372 32.7815 27.1143 33.0938 26.5625H36.7188C38.7716 26.5637 40.757 25.8293 42.315 24.4925C43.873 23.1558 44.9006 21.305 45.2114 19.2758C45.5222 17.2466 45.0957 15.1732 44.0092 13.4313C42.9228 11.6895 41.2482 10.3946 39.2891 9.78126C38.5792 8.08499 37.2324 6.73474 35.538 6.02045C33.8435 5.30616 31.9366 5.28479 30.2266 5.96095C29.1095 4.33495 27.5423 3.07013 25.7172 2.32145C23.892 1.57278 21.8881 1.37277 19.951 1.74593C18.0138 2.11909 16.2276 3.04922 14.8112 4.42235C13.3948 5.79547 12.4097 7.55195 11.9766 9.47657C9.83836 9.80823 7.90397 10.9343 6.5597 12.6298C5.21544 14.3254 4.56026 16.4656 4.725 18.6231C4.88975 20.7806 5.8623 22.7965 7.44842 24.2683C9.03454 25.7401 11.1175 26.5593 13.2813 26.5625H16.9063C17.2185 27.1143 17.5793 27.6372 17.9844 28.125H7.8125C7.6053 28.125 7.40659 28.2073 7.26007 28.3538C7.11356 28.5003 7.03125 28.6991 7.03125 28.9063V47.6563C7.03125 47.8635 7.11356 48.0622 7.26007 48.2087C7.40659 48.3552 7.6053 48.4375 7.8125 48.4375H42.1875C42.3947 48.4375 42.5934 48.3552 42.7399 48.2087C42.8864 48.0622 42.9688 47.8635 42.9688 47.6563V28.9063C42.9688 28.6991 42.8864 28.5003 42.7399 28.3538C42.5934 28.2073 42.3947 28.125 42.1875 28.125ZM16.2109 25H13.2813C11.4798 24.9815 9.75424 24.2722 8.4605 23.0185C7.16677 21.7649 6.40358 20.0624 6.32842 18.2625C6.25326 16.4625 6.87184 14.7024 8.05655 13.3452C9.24126 11.9881 10.9017 11.1374 12.6953 10.9688C12.8699 10.9539 13.0346 10.8814 13.1633 10.7625C13.2921 10.6437 13.3775 10.4853 13.4063 10.3125C13.6923 8.57293 14.5073 6.9637 15.7403 5.70373C16.9734 4.44375 18.5646 3.59421 20.2976 3.27066C22.0306 2.94711 23.8212 3.16526 25.4258 3.89545C27.0304 4.62563 28.3712 5.83239 29.2656 7.35157C29.3671 7.52339 29.5305 7.64988 29.7222 7.70508C29.914 7.76029 30.1196 7.74002 30.2969 7.64845C30.9907 7.28715 31.754 7.07916 32.5352 7.03857C33.3163 6.99798 34.0971 7.12573 34.8246 7.41317C35.5521 7.70062 36.2093 8.14104 36.7518 8.70462C37.2943 9.26819 37.7093 9.94176 37.9688 10.6797C38.011 10.8007 38.0823 10.9095 38.1762 10.9966C38.2702 11.0838 38.384 11.1466 38.5078 11.1797C40.1602 11.6129 41.5981 12.6334 42.5525 14.0501C43.5069 15.4669 43.9123 17.1828 43.693 18.8769C43.4737 20.571 42.6447 22.1271 41.361 23.2541C40.0773 24.3811 38.427 25.0018 36.7188 25H33.7891C34.1722 23.9185 34.3703 22.7802 34.375 21.6328V14.8438C34.3758 14.683 34.3267 14.5259 34.2343 14.3944C34.1419 14.2628 34.0109 14.1632 33.8594 14.1094L25.2656 10.9844C25.0941 10.9219 24.9059 10.9219 24.7344 10.9844L16.1406 14.1094C15.9891 14.1632 15.8581 14.2628 15.7657 14.3944C15.6733 14.5259 15.6242 14.683 15.625 14.8438V21.6328C15.6297 22.7802 15.8278 23.9185 16.2109 25ZM17.1875 21.6328V15.3906L25 12.5469L32.8125 15.3906V21.6328C32.8117 22.8301 32.5611 24.0141 32.0768 25.1091C31.5926 26.2041 30.8852 27.186 30 27.9922L25 32.5391L20 27.9922C19.1148 27.186 18.4074 26.2041 17.9232 25.1091C17.4389 24.0141 17.1883 22.8301 17.1875 21.6328ZM41.4062 46.875H8.59375V39.0625H41.4062V46.875ZM41.4062 37.5H8.59375V29.6875H19.5391L24.4766 34.1719C24.6196 34.3026 24.8063 34.3751 25 34.3751C25.1937 34.3751 25.3805 34.3026 25.5234 34.1719L30.4609 29.6875H41.4062V37.5Z" fill="#515151"/>
<path d="M38.2812 31.25H39.8438V32.8125H38.2812V31.25Z" fill="#515151"/>
<path d="M38.2812 34.375H39.8438V35.9375H38.2812V34.375Z" fill="#515151"/>
<path d="M12.5 45.3125C12.9635 45.3125 13.4167 45.175 13.8021 44.9175C14.1875 44.66 14.4879 44.2939 14.6653 43.8657C14.8427 43.4374 14.8891 42.9662 14.7987 42.5115C14.7083 42.0569 14.4851 41.6393 14.1573 41.3115C13.8295 40.9837 13.4119 40.7605 12.9572 40.67C12.5026 40.5796 12.0313 40.626 11.6031 40.8034C11.1748 40.9808 10.8088 41.2812 10.5512 41.6666C10.2937 42.0521 10.1563 42.5052 10.1562 42.9688C10.1563 43.5904 10.4032 44.1865 10.8427 44.626C11.2823 45.0656 11.8784 45.3125 12.5 45.3125ZM12.5 42.1875C12.6545 42.1875 12.8056 42.2333 12.934 42.3192C13.0625 42.405 13.1626 42.527 13.2218 42.6698C13.2809 42.8125 13.2964 42.9696 13.2662 43.1212C13.2361 43.2727 13.1617 43.4119 13.0524 43.5212C12.9432 43.6304 12.804 43.7048 12.6524 43.735C12.5009 43.7651 12.3438 43.7497 12.201 43.6905C12.0583 43.6314 11.9363 43.5313 11.8504 43.4028C11.7646 43.2743 11.7187 43.1233 11.7187 42.9688C11.7187 42.7616 11.8011 42.5628 11.9476 42.4163C12.0941 42.2698 12.2928 42.1875 12.5 42.1875Z" fill="#515151"/>
<path d="M18.75 45.3125C19.2135 45.3125 19.6667 45.175 20.0521 44.9175C20.4375 44.66 20.7379 44.2939 20.9153 43.8657C21.0927 43.4374 21.1391 42.9662 21.0487 42.5115C20.9583 42.0569 20.7351 41.6393 20.4073 41.3115C20.0795 40.9837 19.6619 40.7605 19.2072 40.67C18.7526 40.5796 18.2813 40.626 17.8531 40.8034C17.4248 40.9808 17.0588 41.2812 16.8012 41.6666C16.5437 42.0521 16.4062 42.5052 16.4062 42.9688C16.4063 43.5904 16.6532 44.1865 17.0927 44.626C17.5323 45.0656 18.1284 45.3125 18.75 45.3125ZM18.75 42.1875C18.9045 42.1875 19.0556 42.2333 19.184 42.3192C19.3125 42.405 19.4126 42.527 19.4718 42.6698C19.5309 42.8125 19.5464 42.9696 19.5162 43.1212C19.4861 43.2727 19.4117 43.4119 19.3024 43.5212C19.1932 43.6304 19.054 43.7048 18.9024 43.735C18.7509 43.7651 18.5938 43.7497 18.451 43.6905C18.3083 43.6314 18.1863 43.5313 18.1004 43.4028C18.0146 43.2743 17.9687 43.1233 17.9687 42.9688C17.9687 42.7616 18.0511 42.5628 18.1976 42.4163C18.3441 42.2698 18.5428 42.1875 18.75 42.1875Z" fill="#515151"/>
<path d="M18.75 31.25C18.2865 31.25 17.8333 31.3875 17.4479 31.645C17.0625 31.9025 16.7621 32.2686 16.5847 32.6968C16.4073 33.1251 16.3609 33.5964 16.4513 34.051C16.5417 34.5056 16.7649 34.9233 17.0927 35.251C17.4205 35.5788 17.8381 35.802 18.2928 35.8925C18.7474 35.9829 19.2186 35.9365 19.6469 35.7591C20.0752 35.5817 20.4412 35.2813 20.6988 34.8959C20.9563 34.5104 21.0937 34.0573 21.0937 33.5938C21.0937 32.9722 20.8468 32.376 20.4073 31.9365C19.9677 31.4969 19.3716 31.25 18.75 31.25ZM18.75 34.375C18.5955 34.375 18.4444 34.3292 18.316 34.2433C18.1875 34.1575 18.0874 34.0355 18.0282 33.8927C17.9691 33.75 17.9536 33.5929 17.9838 33.4413C18.0139 33.2898 18.0883 33.1506 18.1976 33.0413C18.3068 32.9321 18.446 32.8577 18.5976 32.8275C18.7491 32.7974 18.9062 32.8128 19.049 32.872C19.1917 32.9311 19.3137 33.0312 19.3996 33.1597C19.4854 33.2882 19.5312 33.4392 19.5312 33.5938C19.5312 33.801 19.4489 33.9997 19.3024 34.1462C19.1559 34.2927 18.9572 34.375 18.75 34.375Z" fill="#515151"/>
<path d="M25 45.3125C25.4636 45.3125 25.9167 45.175 26.3021 44.9175C26.6876 44.66 26.988 44.2939 27.1653 43.8657C27.3427 43.4374 27.3892 42.9662 27.2987 42.5115C27.2083 42.0569 26.9851 41.6393 26.6573 41.3115C26.3295 40.9837 25.9119 40.7605 25.4572 40.67C25.0026 40.5796 24.5314 40.626 24.1031 40.8034C23.6748 40.9808 23.3088 41.2812 23.0512 41.6666C22.7937 42.0521 22.6562 42.5052 22.6562 42.9688C22.6563 43.5904 22.9032 44.1865 23.3427 44.626C23.7823 45.0656 24.3784 45.3125 25 45.3125ZM25 42.1875C25.1545 42.1875 25.3056 42.2333 25.434 42.3192C25.5625 42.405 25.6627 42.527 25.7218 42.6698C25.7809 42.8125 25.7964 42.9696 25.7662 43.1212C25.7361 43.2727 25.6617 43.4119 25.5524 43.5212C25.4432 43.6304 25.304 43.7048 25.1524 43.735C25.0009 43.7651 24.8438 43.7497 24.701 43.6905C24.5583 43.6314 24.4363 43.5313 24.3504 43.4028C24.2646 43.2743 24.2188 43.1233 24.2188 42.9688C24.2188 42.7616 24.3011 42.5628 24.4476 42.4163C24.5941 42.2698 24.7928 42.1875 25 42.1875Z" fill="#515151"/>
<path d="M38.2812 40.625H39.8438V42.1875H38.2812V40.625Z" fill="#515151"/>
<path d="M38.2812 43.75H39.8438V45.3125H38.2812V43.75Z" fill="#515151"/>
<path d="M33.5938 40.625H35.1562V42.1875H33.5938V40.625Z" fill="#515151"/>
<path d="M33.5938 43.75H35.1562V45.3125H33.5938V43.75Z" fill="#515151"/>
<path d="M28.9062 40.625H30.4688V42.1875H28.9062V40.625Z" fill="#515151"/>
<path d="M28.9062 43.75H30.4688V45.3125H28.9062V43.75Z" fill="#515151"/>
<path d="M33.5938 31.25H35.1562V32.8125H33.5938V31.25Z" fill="#515151"/>
<path d="M33.5938 34.375H35.1562V35.9375H33.5938V34.375Z" fill="#515151"/>
<path d="M28.9062 34.375H30.4688V35.9375H28.9062V34.375Z" fill="#515151"/>
<path d="M1.5625 32.8125V42.9688C1.5625 43.176 1.64481 43.3747 1.79132 43.5212C1.93784 43.6677 2.13655 43.75 2.34375 43.75H5.46875V42.1875H3.125V33.5938H5.46875V32.0312H2.34375C2.13655 32.0312 1.93784 32.1136 1.79132 32.2601C1.64481 32.4066 1.5625 32.6053 1.5625 32.8125Z" fill="#515151"/>
<path d="M47.6562 32.0312H44.5312V33.5938H46.875V42.1875H44.5312V43.75H47.6562C47.8635 43.75 48.0622 43.6677 48.2087 43.5212C48.3552 43.3747 48.4375 43.176 48.4375 42.9688V32.8125C48.4375 32.6053 48.3552 32.4066 48.2087 32.2601C48.0622 32.1136 47.8635 32.0312 47.6562 32.0312Z" fill="#515151"/>
<path d="M21.6461 21.3226L20.5414 22.4273L23.6664 25.5523C23.8129 25.6988 24.0116 25.7811 24.2188 25.7811C24.4259 25.7811 24.6246 25.6988 24.7711 25.5523L30.2399 20.0836L29.1352 18.9789L24.2188 23.8953L21.6461 21.3226Z" fill="#515151"/>
</svg>
