<svg width="100" height="100" viewBox="0 0 100 100" fill="none" xmlns="http://www.w3.org/2000/svg">
<circle cx="50" cy="50" r="50" fill="#71B9B4"/>
<g clip-path="url(#clip0)">
<path d="M25.8201 49.9889H25.8493C26.2986 49.9892 26.6673 49.6331 26.6826 49.1839C27.1334 36.3055 37.9389 26.2309 50.8173 26.6816C55.771 26.8551 60.5407 28.6014 64.4351 31.6677H60.0002C59.54 31.6677 59.1668 32.0408 59.1668 32.501C59.1668 32.9612 59.54 33.3343 60.0002 33.3343H66.6667H66.6783C66.7435 33.329 66.8078 33.3162 66.87 33.296C66.9126 33.2898 66.9546 33.2806 66.9958 33.2685C67.0192 33.2585 67.0367 33.2376 67.0592 33.2251C67.1339 33.1886 67.2026 33.1404 67.2625 33.0826L67.2708 33.0768C67.292 33.0478 67.3112 33.0175 67.3283 32.986C67.372 32.9328 67.4087 32.8743 67.4375 32.8118C67.4604 32.7453 67.4745 32.6762 67.4791 32.606C67.4887 32.5716 67.4957 32.5365 67.5 32.501V25.8345C67.5 25.3743 67.1269 25.0011 66.6667 25.0011C66.2065 25.0011 65.8334 25.3743 65.8334 25.8345V30.661C55.1564 21.9131 39.4093 23.4768 30.6613 34.1539C27.1892 38.3917 25.2057 43.6529 25.0159 49.1281C25.0005 49.5878 25.3604 49.9731 25.8201 49.9889Z" fill="white"/>
<path d="M32.5666 65.5077C32.2608 65.1625 31.7331 65.1307 31.3879 65.4365C31.0427 65.7423 31.0108 66.27 31.3166 66.6152C31.8903 67.2589 32.4963 67.8731 33.1324 68.4552C33.4784 68.7588 34.0048 68.7244 34.3084 68.3786C34.6034 68.0425 34.5805 67.5335 34.2566 67.2252C33.6643 66.682 33.1002 66.1088 32.5666 65.5077Z" fill="white"/>
<path d="M42.5114 72.1059C41.7495 71.848 41.0016 71.5506 40.2706 71.2151C39.8582 71.0108 39.3582 71.1795 39.154 71.5919C38.9497 72.0043 39.1184 72.5043 39.5308 72.7086C39.545 72.7155 39.5594 72.7222 39.5739 72.7284C40.3577 73.0892 41.16 73.4085 41.9772 73.685C42.4133 73.8325 42.8864 73.5986 43.0339 73.1625C43.1815 72.7265 42.9475 72.2534 42.5114 72.1059Z" fill="white"/>
<path d="M38.134 70.0952V70.0944C37.4414 69.684 36.7701 69.2391 36.1224 68.761C35.761 68.4759 35.2371 68.5378 34.952 68.8992C34.6669 69.2605 34.7288 69.7845 35.0901 70.0696C35.1037 70.0802 35.1174 70.0905 35.1316 70.1003C35.8243 70.6131 36.5427 71.0901 37.284 71.5294C37.6801 71.7641 38.1914 71.6334 38.4261 71.2373C38.6609 70.8412 38.53 70.3299 38.134 70.0952Z" fill="white"/>
<path d="M31.0575 63.627C30.5877 62.9738 30.1517 62.2971 29.7508 61.5995C29.5207 61.2002 29.0105 61.0632 28.6113 61.2933C28.212 61.5234 28.0749 62.0336 28.305 62.4328C28.7344 63.1787 29.2017 63.9022 29.705 64.6003C29.9814 64.9683 30.5037 65.0425 30.8717 64.7662C31.2292 64.4978 31.3112 63.9951 31.0575 63.627Z" fill="white"/>
<path d="M28.7332 59.7926C28.7332 59.6765 28.7088 59.5616 28.6618 59.4554L28.6601 59.4496C28.334 58.715 28.0461 57.964 27.7977 57.1996C27.6768 56.7556 27.2188 56.4935 26.7748 56.6144C26.3307 56.7353 26.0686 57.1933 26.1896 57.6373C26.1967 57.6632 26.2049 57.6887 26.2144 57.7138C26.4803 58.5347 26.7885 59.3414 27.1377 60.1304C27.2713 60.4321 27.5703 60.6264 27.9002 60.6262C28.3604 60.626 28.7333 60.2528 28.7332 59.7926Z" fill="white"/>
<path d="M26.533 55.8555C26.5331 55.8555 26.5333 55.8554 26.5334 55.8554C26.9831 55.7596 27.2702 55.3177 27.1751 54.868C27.009 54.0808 26.8833 53.2856 26.7984 52.4855C26.7499 52.0276 26.3393 51.6957 25.8814 51.7443C25.4234 51.7928 25.0916 52.2034 25.1401 52.6613C25.2314 53.5183 25.3665 54.3699 25.5451 55.213C25.6405 55.6633 26.0828 55.9509 26.533 55.8555Z" fill="white"/>
<path d="M73.6675 55.0048C73.6672 55.0047 73.6669 55.0047 73.6666 55.0046C73.2199 54.894 72.7682 55.1663 72.6574 55.6129C72.4643 56.3942 72.231 57.1649 71.9583 57.922C71.8023 58.3552 72.0268 58.8326 72.46 58.9887C72.8931 59.1447 73.3706 58.9201 73.5266 58.487C73.819 57.6761 74.0693 56.8505 74.2766 56.0138C74.387 55.567 74.1143 55.1153 73.6675 55.0048Z" fill="white"/>
<path d="M47.2096 73.1667C46.4109 73.0716 45.6177 72.9353 44.833 72.7584C44.3841 72.6569 43.9378 72.9386 43.8364 73.3875C43.7349 73.8365 44.0166 74.2827 44.4655 74.3842C45.3065 74.5737 46.1568 74.7198 47.013 74.8217C47.0462 74.8257 47.0795 74.8276 47.113 74.8275C47.5732 74.8265 47.9454 74.4526 47.9445 73.9924C47.9437 73.5709 47.6283 73.2165 47.2096 73.1667Z" fill="white"/>
<path d="M72.1308 59.7579C71.7165 59.5579 71.2186 59.7313 71.0182 60.1454C70.6679 60.8697 70.2802 61.5755 69.8566 62.2595C69.621 62.6549 69.7505 63.1664 70.1459 63.4019C70.5317 63.6318 71.0303 63.5146 71.2732 63.137C71.7267 62.4038 72.142 61.6474 72.5173 60.8712C72.7181 60.457 72.5449 59.9586 72.1308 59.7579Z" fill="white"/>
<path d="M69.6689 64.0918C69.3087 63.8053 68.7844 63.8651 68.498 64.2254C68.493 64.2317 68.4881 64.238 68.4833 64.2444V64.2427C67.9916 64.8805 67.4674 65.4924 66.9125 66.076C66.5952 66.4096 66.6084 66.9374 66.9421 67.2547C67.2757 67.572 67.8035 67.5588 68.1208 67.2251C68.7141 66.5998 69.2754 65.9448 69.8024 65.2627C70.0889 64.9025 70.0291 64.3782 69.6689 64.0918Z" fill="white"/>
<path d="M74.1806 50.0397C73.7279 50.0166 73.3421 50.3649 73.3191 50.8176C73.3187 50.8261 73.3184 50.8346 73.3182 50.843C73.2899 51.6472 73.22 52.4494 73.109 53.2463C73.0462 53.7016 73.3639 54.1217 73.819 54.1855C73.8576 54.1911 73.8966 54.1939 73.9356 54.1938C74.3509 54.1932 74.7025 53.8868 74.7598 53.4755C74.8784 52.6218 74.9532 51.7627 74.9839 50.9014C74.9999 50.4417 74.6404 50.056 74.1806 50.0397Z" fill="white"/>
<path d="M65.1667 67.7335V67.736C64.5534 68.2595 63.9137 68.7513 63.2501 69.2093C62.8706 69.4716 62.7757 69.9919 63.038 70.3714C63.3003 70.7508 63.8206 70.8457 64.2001 70.5834C64.9097 70.0906 65.5939 69.5622 66.25 69.0001C66.5998 68.701 66.6408 68.175 66.3417 67.8252C66.0426 67.4754 65.5165 67.4343 65.1667 67.7335Z" fill="white"/>
<path d="M56.7594 72.3401C55.9893 72.5722 55.2077 72.7641 54.4178 72.9151C53.9658 73.0021 53.6699 73.4389 53.7568 73.8908C53.8321 74.2826 54.1746 74.566 54.5736 74.5667C54.6264 74.567 54.6791 74.5622 54.7311 74.5526C55.5779 74.3907 56.4157 74.1847 57.241 73.9351C57.6781 73.791 57.9157 73.3199 57.7717 72.8828C57.6327 72.4612 57.1875 72.2225 56.7594 72.3401Z" fill="white"/>
<path d="M52.0712 73.2429C52.0559 73.2437 52.0407 73.2451 52.0255 73.2467L52.0296 73.2501C51.363 73.3067 50.6805 73.3334 50.0005 73.3334H49.6197C49.1652 73.3398 48.7938 73.6978 48.7705 74.1517C48.7622 74.6119 49.1284 74.9917 49.5885 75C49.5886 75 49.5887 75 49.5888 75H50.0005C50.7288 75 51.4588 74.9675 52.1671 74.9067C52.6266 74.8802 52.9776 74.4863 52.9511 74.0268C52.9245 73.5673 52.5306 73.2163 52.0712 73.2429Z" fill="white"/>
<path d="M61.1993 70.4742H61.2001C60.4946 70.8606 59.7699 71.2105 59.0285 71.5226C58.6021 71.6956 58.3965 72.1815 58.5695 72.6079C58.7424 73.0344 59.2284 73.2399 59.6549 73.067C59.6611 73.0645 59.6673 73.0619 59.6734 73.0592C60.4678 72.7249 61.2443 72.35 62 71.9359C62.4037 71.7147 62.5516 71.2083 62.3304 70.8047C62.1095 70.401 61.6029 70.2531 61.1993 70.4742Z" fill="white"/>
<path d="M50.0004 32.501C40.3356 32.501 32.5008 40.3358 32.5008 50.0006C32.5008 59.6654 40.3356 67.5002 50.0004 67.5002C59.6651 67.5002 67.5 59.6654 67.5 50.0006C67.489 40.3404 59.6606 32.512 50.0004 32.501ZM63.3334 50.8339H65.7908C65.3579 58.9084 58.9082 65.3581 50.8337 65.791V63.3336C50.8337 62.8734 50.4606 62.5003 50.0004 62.5003C49.5402 62.5003 49.167 62.8734 49.167 63.3336V65.791C41.0925 65.3581 34.6428 58.9084 34.2099 50.8339H36.6673C37.1275 50.8339 37.5006 50.4608 37.5006 50.0006C37.5006 49.5404 37.1275 49.1673 36.6673 49.1673H34.2099C34.6428 41.0928 41.0925 34.643 49.167 34.2101V36.6675C49.167 37.1277 49.5402 37.5009 50.0004 37.5009C50.4606 37.5009 50.8337 37.1277 50.8337 36.6675V34.2101C58.9082 34.643 65.3579 41.0928 65.7908 49.1673H63.3334C62.8732 49.1673 62.5001 49.5404 62.5001 50.0006C62.5001 50.4608 62.8732 50.8339 63.3334 50.8339Z" fill="white"/>
<path d="M50.8337 47.6539V40.0008C50.8337 39.5406 50.4606 39.1675 50.0004 39.1675C49.5402 39.1675 49.1671 39.5406 49.1671 40.0008V47.6539C48.4614 47.906 47.9058 48.4615 47.6538 49.1672H43.3339C42.8737 49.1672 42.5005 49.5404 42.5005 50.0006C42.5005 50.4608 42.8737 50.8339 43.3339 50.8339H47.6538C48.1104 52.1334 49.5341 52.8167 50.8337 52.3601C52.1332 51.9034 52.8166 50.4797 52.3599 49.1802C52.1091 48.4662 51.5476 47.9049 50.8337 47.6539ZM50.0004 50.8339C49.5402 50.8339 49.1671 50.4608 49.1671 50.0006C49.1671 49.5404 49.5402 49.1672 50.0004 49.1672C50.4606 49.1672 50.8337 49.5404 50.8337 50.0006C50.8337 50.4608 50.4607 50.8339 50.0004 50.8339Z" fill="white"/>
</g>
<defs>
<clipPath id="clip0">
<rect width="50" height="50" fill="white" transform="translate(25 25)"/>
</clipPath>
</defs>
</svg>
