<svg width="100" height="100" viewBox="0 0 100 100" fill="none" xmlns="http://www.w3.org/2000/svg">
<circle cx="50" cy="50" r="50" fill="#5CCAFF"/>
<path d="M77.2033 33.3556C76.3471 32.7934 75.2744 32.7008 74.3347 33.1083L60.9541 38.9077C60.2712 36.4374 58.0049 34.6173 55.3203 34.6173H27.274C24.0509 34.6173 21.4286 37.2397 21.4286 40.4627V59.7049C21.4286 62.928 24.0509 65.5504 27.274 65.5504H55.3203C58.0049 65.5504 60.2712 63.7305 60.9541 61.2601L63.6321 62.421C63.8173 62.5012 64.0099 62.5391 64.1996 62.5391C64.7518 62.5391 65.2778 62.2171 65.5116 61.678C65.8252 60.9538 65.4927 60.1124 64.7687 59.7986L61.1659 58.2371V41.9309L75.4716 35.7307C75.4926 35.7212 75.557 35.6932 75.6353 35.7448C75.7134 35.7961 75.7134 35.8664 75.7134 35.8894V64.2784C75.7134 64.3015 75.7134 64.372 75.6353 64.4232C75.557 64.4748 75.4926 64.4466 75.4716 64.4373L70.3585 62.2211C69.6343 61.9075 68.7932 62.2402 68.4792 62.964C68.1656 63.6882 68.4981 64.5295 69.222 64.8433L74.3351 67.0595C74.7228 67.2275 75.1332 67.3104 75.5417 67.3104C76.1232 67.3104 76.7007 67.1422 77.2037 66.8122C78.0601 66.25 78.5714 65.3027 78.5714 64.2782V35.8894C78.571 34.865 78.0599 33.9179 77.2033 33.3556ZM58.3079 59.7051C58.3079 61.3523 56.9677 62.6927 55.3203 62.6927H27.274C25.6268 62.6927 24.2864 61.3525 24.2864 59.7051V40.4629C24.2864 38.8157 25.6266 37.4753 27.274 37.4753H55.3203C56.9675 37.4753 58.3079 38.8155 58.3079 40.4629V59.7051Z" fill="white"/>
<rect x="32.6762" y="52.5847" width="2.92133" height="9.88589" rx="1.46067" transform="rotate(-45 32.6762 52.5847)" fill="white"/>
<rect x="47.4286" y="41.1317" width="2.92133" height="19.347" rx="1.46067" transform="rotate(30 47.4286 41.1317)" fill="white"/>
</svg>
